HIERARCHY
ROOT Hips
{
	OFFSET 0.000000 0.000000 0.000000
	CHANNELS 6 Xposition Yposition Zposition Zrotation Yrotation Xrotation 
		JOINT LeftUpLeg
		{
			OFFSET 1.363060 -1.794630 0.839290
			CHANNELS 3 Zrotation Yrotation Xrotation
			JOINT LeftLeg
			{
				OFFSET 2.448110 -6.726130 0.000000
				CHANNELS 3 Zrotation Yrotation Xrotation
				JOINT LeftFoot
				{
					OFFSET 2.562200 -7.039590 0.000000
					CHANNELS 3 Zrotation Yrotation Xrotation
					JOINT LeftToeBase
					{
						OFFSET 0.157640 -0.433110 2.322550
						CHANNELS 3 Zrotation Yrotation Xrotation
						End Site
						{
							OFFSET 0.000000 0.000000 0.000000
						}
					}
				}
			}
		}
		JOINT RightUpLeg
		{
			OFFSET -1.305520 -1.794630 0.839290
			CHANNELS 3 Zrotation Yrotation Xrotation
			JOINT RightLeg
			{
				OFFSET -2.542530 -6.985550 0.000000
				CHANNELS 3 Zrotation Yrotation Xrotation
				JOINT RightFoot
				{
					OFFSET -2.568260 -7.056230 0.000000
					CHANNELS 3 Zrotation Yrotation Xrotation
					JOINT RightToeBase
					{
						OFFSET -0.164730 -0.452590 2.363150
						CHANNELS 3 Zrotation Yrotation Xrotation
						End Site
						{
							OFFSET 0.000000 0.000000 0.000000
						}
					}
				}
			}
		}
		JOINT Spine
		{
			OFFSET -0.000000 1.017795 0.000000
			CHANNELS 3 Zrotation Yrotation Xrotation
			JOINT Spine1
			{
				OFFSET 0.056720 2.048850 -0.042750
				CHANNELS 3 Zrotation Yrotation Xrotation
            JOINT Spine2
            {
                OFFSET -0.000000 1.017795 0.000000
                CHANNELS 3 Zrotation Yrotation Xrotation
					JOINT Neck
					{
						OFFSET -0.054170 1.746240 0.172020
						CHANNELS 3 Zrotation Yrotation Xrotation
						JOINT Head
						{
							OFFSET 0.104070 1.761360 -0.123970
							CHANNELS 3 Zrotation Yrotation Xrotation
							End Site
							{
								OFFSET 0.000000 0.000000 0.000000
							}
						}
					}
				JOINT LeftShoulder
				{
					OFFSET 0.000000 0.000000 0.000000
					CHANNELS 3 Zrotation Yrotation Xrotation
					JOINT LeftArm
					{
						OFFSET 3.362410 1.200890 -0.311210
						CHANNELS 3 Zrotation Yrotation Xrotation
						JOINT LeftForeArm
						{
							OFFSET 4.983000 -0.000000 -0.000000
							CHANNELS 3 Zrotation Yrotation Xrotation
							JOINT LeftHand
							{
								OFFSET 3.483560 -0.000000 -0.000000
								CHANNELS 3 Zrotation Yrotation Xrotation
									End Site
									{
										OFFSET 0.000000 0.000000 0.000000
									}
							}
						}
					}
				}
				JOINT RightShoulder
				{
					OFFSET 0.000000 0.000000 0.000000
					CHANNELS 3 Zrotation Yrotation Xrotation
					JOINT RightArm
					{
						OFFSET -3.136600 1.374050 -0.404650
						CHANNELS 3 Zrotation Yrotation Xrotation
						JOINT RightForeArm
						{
							OFFSET -5.241900 -0.000000 -0.000000
							CHANNELS 3 Zrotation Yrotation Xrotation
							JOINT RightHand
							{
								OFFSET -3.444170 -0.000000 -0.000000
								CHANNELS 3 Zrotation Yrotation Xrotation
									End Site
									{
										OFFSET 0.000000 0.000000 0.000000
									}
							}
						}
					}
				}
			}
            }
		}
}
MOTION
Frames: 13
Frame Time: 0.008333
19.939872    16.850014    1.430627    162.659769    -85.805601    -111.407595    -16.998918    -8.329846    -55.901579    -2.659652    -1.633449    11.486586    3.406786    14.025685    -8.470298    1.008400    0.000000    -39.629200    9.599811    8.579214    -54.978398    2.478960    1.379302    9.798491    -2.414713    -8.111713    -6.014732    -1.553000    0.000000    -63.575901    0.000000    0.000000    0.000000    -1.1359249999999999    -4.472621    -5.255126    -4.344177    -2.461332    1.923513    7.4391359999999995    -12.176714    -13.943592    0.000000    0.000000    0.000000    -2.032682    16.264488    2.979089    -55.481583    43.140906    -0.903828    -2.707459    -7.551553    0.002524    2.665654    0.697003    0.019523    10.619199    -11.504313    2.831628    51.503798    -43.631432    -30.135510    2.259855    1.177960    0.013062    -8.316619    7.236990    -0.547796
19.920051    16.790247    1.430121    161.913303    -85.810270    -109.937501    -16.800842    -8.772874999999999    -57.585029    -2.655728    -1.449631    13.511587    3.542692    14.038040    -9.609730    0.724200    0.000000    -39.546800    9.079889000000001    9.015242    -56.80180300000001    2.374590    1.129511    12.182457    -2.598167    -8.302823    -7.292478    -1.370600    0.000001    -62.795100    0.000000    0.000000    0.000000    -1.1458279999999998    -4.490756    -5.562183    -4.402134    -2.478813    1.882504    7.497734000000001    -12.125291    -14.058606    0.000000    0.000000    0.000000    -2.181377    15.987474    3.005293    -55.566753    42.754798    -0.270652    -2.704631    -8.014210    0.001986    2.474938    0.789713    0.020320    10.877256    -11.426550    2.910010    52.009959    -42.929183    -29.988844    2.231281    1.414856    0.012155    -8.302266    7.069162    -0.533997
19.899217    16.724856    1.429458    160.910017    -85.824466    -108.240279    -16.609877    -9.216819    -59.305962    -2.649943    -1.242123    15.678625    3.674878    14.005430    -10.822631    0.412299    0.000000    -39.340000    8.537913999999999    9.432162000000002    -58.663207    2.255142    0.856795    14.722475    -2.791077    -8.507632    -8.630570    -1.166100    -0.000001    -61.911400    0.000000    0.000000    0.000000    -1.149386    -4.520766999999999    -5.868133    -4.463665    -2.502340    1.841302    7.549557999999999    -12.067298    -14.165483    0.000000    0.000000    0.000000    -2.330955    15.695745    3.029128    -55.649589    42.343996    0.423917    -2.703338    -8.515527    0.001472    2.279081    0.877469    0.020618    11.139813    -11.345244    2.985212    52.508504    -42.158719    -29.916045    2.198808    1.605029    0.011425    -8.319737    6.985815    -0.528697
19.877479    16.653792    1.428782    159.639661    -85.849246    -106.312412    -16.421799    -9.664048    -61.050928    -2.638863    -1.011608    17.977023    3.803002    13.935911    -12.099297    0.077500    -0.000000    -38.991400    7.981918    9.825521    -60.546711    2.120647    0.563528    17.402763    -2.992142    -8.732148    -10.013072    -0.940901    0.000000    -60.946000    0.000000    0.000000    0.000000    -1.144377    -4.560363000000001    -6.167242    -4.530558    -2.530731    1.798939    7.595331999999999    -12.006718999999999    -14.262934999999999    0.000000    0.000000    0.000000    -2.485585    15.382743    3.050597    -55.725933    41.911041    1.151453    -2.703365    -9.048068    0.000983    2.081622    0.962265    0.020516    11.418180    -11.261573    3.056190    53.006836    -41.358372    -29.719311    2.168006    1.844109    0.010716    -8.389967    6.905241    -0.526796
19.854871    16.577004    1.428111    158.071367    -85.882612    -104.125834    -16.232136    -10.120598    -62.80740699999999    -2.618442    -0.760357    20.391463    3.928247    13.845301    -13.424855    -0.274200    0.000000    -38.496900    7.417587999999999    10.190736    -62.44085    1.971441    0.252622    20.207467    -3.199655    -8.980871    -11.424511    -0.696300    0.000000    -59.922200    0.000000    0.000000    0.000000    -1.12761    -4.610167000000001    -6.459168    -4.600878    -2.564280    1.756377    7.630559    -11.937603    -14.348695    0.000000    0.000000    0.000000    -2.649710    15.053555    3.069408    -55.788791    41.445545    1.915960    -2.704305    -9.596240    0.000504    1.883474    1.051315    0.020214    11.699028    -11.172288    3.122673    53.498349    -40.503255    -29.566221    2.135451    2.048584    0.010152    -8.483940    6.895223    -0.531696
19.831162    16.494552    1.427529    156.184709    -85.924103    -101.662893    -16.037169    -10.589131    -64.562144    -2.585012    -0.491383    22.904534    4.051395    13.748761    -14.781472    -0.636500    -0.000000    -37.866000    6.852918999999999    10.524829    -64.330056    1.808518    -0.071896    23.114614    -3.411753    -9.258444    -12.849402    -0.433400    0.000000    -58.863200    0.000000    0.000000    0.000000    -1.098379    -4.667707    -6.740624    -4.676000    -2.601705    1.712969    7.656336    -11.862846000000001    -14.421455    0.000000    0.000000    0.000000    -2.826362    14.702844    3.085622    -55.835719    40.946283    2.699178    -2.706059    -10.150403    0.000031    1.684622    1.146408    0.019612    11.992778    -11.078248    3.183735    53.988027    -39.622838    -29.305240    2.105755    2.291717    0.009595    -8.611737    6.884559    -0.538595
19.806484    16.406513    1.427048    153.948356    -85.970818    -98.892835    -15.834837    -11.073113    -66.30405900000001    -2.535228    -0.208646    25.496671    4.173981    13.664669    -16.147847    -1.003600    -0.000000    -37.124100    6.29343    10.825188    -66.201392    1.633308    -0.405606    26.101827    -3.626241    -9.567057    -14.274809    -0.153200    0.000001    -57.788700    0.000000    0.000000    0.000000    -1.054961    -4.733267    -7.012479    -4.754360    -2.643119    1.670042    7.669834999999999    -11.778336    -14.479959000000001    0.000000    0.000000    0.000000    -3.019345    14.336541    3.098993    -55.861051    40.400777    3.514143    -2.708360    -10.698223    -0.000447    1.483902    1.253877    0.018910    12.289832    -10.977669    3.239379    54.471315    -38.692123    -29.080466    2.076148    2.503261    0.009126    -8.742744    6.919755    -0.549292
19.780715    16.313129    1.426667    151.338762    -86.020568    -95.792930    -15.623984    -11.573424    -68.02195499999999    -2.466698    0.083393    28.147396    4.297067    13.608894    -17.503076    -1.370600    0.000000    -36.304700    5.746484000000001    11.09041    -68.040149    1.447977    -0.743635    29.142899    -3.840926    -9.907586    -15.690867    0.144100    -0.000001    -56.712300    0.000000    0.000000    0.000000    -0.998865    -4.804474    -7.273943    -4.837148    -2.687275    1.627486    7.673674999999999    -11.688114    -14.524156    0.000000    0.000000    0.000000    -3.227955    13.951967    3.109811    -55.863907    39.803006    4.352129    -2.711215    -11.230898    -0.000928    1.281394    1.372344    0.017907    12.601881    -10.872541    3.288724    54.950694    -37.736009    -28.742469    2.051107    2.753885    0.008608    -8.886155    6.926104    -0.558590
19.753743    16.214710    1.426395    148.335924    -86.070075    -92.343763    -15.405059999999999    -12.089741    -69.706659    -2.377999    0.380205    30.836764    4.421570    13.595585    -18.826930    -1.734200    0.000000    -35.448600    5.21754    11.319916    -69.832879    1.254959    -1.081365    32.212499    -4.053634    -10.278770    -17.091784    0.458800    -0.000000    -55.640500    0.000000    0.000000    0.000000    -0.931611    -4.880217    -7.525279    -4.924219    -2.733544    1.586116    7.669134    -11.592633    -14.554764    0.000000    0.000000    0.000000    -3.451235    13.553385    3.118330    -55.842240    39.140323    5.219095    -2.714432    -11.738494    -0.001403    1.078583    1.499638    0.016603    12.932228    -10.763011    3.331356    55.422823    -36.753193    -28.283104    2.031418    3.045500    0.008014    -9.032750    6.886425    -0.564287
19.725386    16.111496    1.426156    144.938622    -86.113754    -88.540858    -15.181084    -12.620737    -71.351974    -2.268801    0.677589    33.547035    4.548148    13.635628    -20.101976    -2.092200    -0.000001    -34.601500    4.710424999999999    11.513525999999999    -71.56888000000001    1.057198    -1.414332    35.284960    -4.262173    -10.676316    -18.475458    0.791500    0.000001    -54.573900    0.000000    0.000000    0.000000    -0.851655    -4.962342    -7.770645999999999    -5.012841    -2.782872    1.548485    7.653612    -11.488832    -14.573303    0.000000    0.000000    0.000000    -3.697311    13.153151    3.123995    -55.787205    38.398627    6.133095    -2.717729    -12.219252    -0.001882    0.876563    1.641644    0.014899    13.262677    -10.649960    3.368858    55.880623    -35.686896    -27.953767    2.010877    3.250639    0.007499    -9.138537    6.893251    -0.571184
19.695425    16.004187    1.426013    141.151227    -86.151774    -84.394895    -14.954782999999999    -13.159479000000001    -72.942678    -2.140341    0.971567    36.260351    4.675587    13.730807    -21.319148    -2.444900    0.000000    -33.794400    4.234222    11.673369    -73.22927    0.857377    -1.739705    38.341465    -4.464900    -11.096770    -19.846154    1.144500    -0.000000    -53.499900    0.000000    0.000000    0.000000    -0.765819    -5.04494    -8.003147    -5.108206    -2.832172    1.511244    7.635873000000001    -11.375454999999999    -14.579473    0.000000    0.000000    0.000000    -3.945254    12.742192    3.129185    -55.712863    37.565493    7.076087    -2.720421    -12.649773    -0.002282    0.689497    1.764807    0.012895    13.639820    -10.523333    3.397541    56.328373    -34.635436    -27.323047    2.001426    3.593455    0.006758    -9.254420    6.761741    -0.567281
19.663913    15.893087    1.425863    137.026366    -86.176740    -79.953632    -14.73056    -13.702126    -74.477963    -1.994413    1.259203    38.962748    4.803634    13.883288    -22.469152    -2.791900    0.000000    -33.066700    3.7904170000000006    11.800747000000001    -74.808956    0.658509    -2.054330    41.357655    -4.659706    -11.531671    -21.204380    1.517700    0.000000    -52.421700    0.000000    0.000000    0.000000    -0.6721940000000001    -5.131272    -8.230851999999999    -5.205393    -2.883174    1.479079    7.612716000000001    -11.253972000000001    -14.578187    0.000000    0.000000    0.000000    -4.209071    12.341626    3.132742    -55.606273    36.624088    8.054545    -2.722361    -13.035137    -0.002623    0.524013    1.882514    0.010790    14.029548    -10.391000    3.420705    56.753988    -33.501365    -26.762757    1.992710    3.872099    0.006053    -9.329681    6.645451    -0.561877
19.630527    15.778868    1.425723    132.626001    -86.187767    -75.281151    -14.512387    -14.240302    -75.94873799999999    -1.833929    1.538216    41.642248    4.930355    14.086132    -23.552712    -3.134700    0.000000    -32.440500    3.3856849999999996    11.89883    -76.296197    0.462955    -2.356888    44.318421    -4.845233    -11.974837    -22.554473    1.911999    -0.000000    -51.334900    0.000000    0.000000    0.000000    -0.575161    -5.217957    -8.451726    -5.306000    -2.934148    1.452030    7.589948999999999    -11.125101    -14.572284    0.000000    0.000000    0.000000    -4.475197    11.957009    3.136281    -55.476506    35.552004    9.049824    -2.722617    -13.353407    -0.002844    0.401230    1.973067    0.008987    14.452797    -10.249440    3.436689    57.154780    -32.318753    -26.083748    1.989220    4.177145    0.005267    -9.393738    6.472073    -0.550874
